# xmcd
#
# Track frame offsets:
#	150
#	20700
#	32585
#	51902
#	65437
#	77253
#	90790
#	106879
#	124879
#	142915
#
# Disc length: 2064 seconds
#
# Revision: 0
# Processed by: cddbd v1.4b42PL1 Copyright (c) Steve Scherf et al.
# Submitted via: EZCDDA 4.3.3.2
#
DISCID=73080e0a
DTITLE=Stan Bixler - A Long Way From Home
DYEAR=1900
DGENRE=
TTITLE0=A Long Way From Home
TTITLE1=Blood In The Snow
TTITLE2=Green-Eyed Monster
TTITLE3=Guilty
TTITLE4=I Remember You
TTITLE5=I'm Glad I'm An American
TTITLE6=Life In America
TTITLE7=Living Without You
TTITLE8=Since Yesterday
TTITLE9=Those Friends In Low Places
EXTD=
EXTT0=
EXTT1=
EXTT2=
EXTT3=
EXTT4=
EXTT5=
EXTT6=
EXTT7=
EXTT8=
EXTT9=
PLAYORDER=
